<svg id="svg1" class="book-svg-icon" width="16" height="16" fill="currentColor" version="1.1" viewBox="0 0 16 16" xmlns="http://www.w3.org/2000/svg">
<path id="path33" d="m5.6542969 1.0001823c-0.937649-0.00777977-1.1562033 0.2320406-2.6542969 0.9824219h-2v10.962891l4-0.462891c0 0.277 0.223 0.5 0.5 0.5h5c0.277 0 0.5-0.223 0.5-0.5l4 0.462891v-10.962891h-2c-3.963706-1.9853839-4.9689162-0.3897194-5-0.1191406-0.0193356-0.1683128-0.8024892-0.8504769-2.3457031-0.8632813zm-0.1054688 1.0019531c1.097007-0.023041 2.0464501 0.2806373 2.4511719 0.9804688 0.8094436-1.3996629 2.795659-1.2153323 4.791016 0l1.208984 1v6.6133448l-3-0.6133448s-2-1-3 0.9999998c-1-1.9999998-3-0.9999998-3-0.9999998s-1.9847374 0.4102128-3 0.6719118v-6.6719118l1.2089844-1c0.9976785-0.6076661 1.2428367-0.9574273 2.3398437-0.9804688z"/>
</svg>
