<svg class="card-svg-icon" width="16" height="16" fill="currentColor" version="1.1" viewBox="0 0 16 16" xml:space="preserve" xmlns="http://www.w3.org/2000/svg"><path d="m1.5 0.97656c-0.82843 0-1.5 0.66962-1.5 1.498v6c0 0.82843 0.67157 1.5 1.5 1.5h13c0.82843 0 1.5-0.67157 1.5-1.5v-6c0-0.82843-0.67157-1.498-1.5-1.498zm0 0.99805h13c0.27614 0 0.5 0.22386 0.5 0.5v4.498l-3.7734-1.9473c-0.07212-0.036126-0.15146-0.051263-0.22852-0.050781-0.12842 8.022e-4 -0.25442 0.051558-0.34961 0.14648l-3.6484 2.8535-2.7207-0.91797c-0.19801-0.13183-0.46235-0.1054-0.63086 0.0625l-2.459 1.7227c-0.11403-0.1035-0.18945-0.24829-0.18945-0.36719v-6c0-0.27614 0.22386-0.5 0.5-0.5zm3.0527 1.002c-0.05322-0.0017-0.10774-0.00209-0.16211 0.00195-0.78316 0.058286-1.3888 0.71077-1.3887 1.4961 0 2 3 2 3 0 1.258e-4 -0.81785-0.65092-1.4726-1.4492-1.498zm-3.5527 8.0234v3l1.0156-1h0.98438v3h2v-3h0.98438l1.0156 1v-3zm7 1v3h7v-3z"/></svg>
