<svg class="edit-svg-icon" width="16" height="16" version="1.1" viewBox="0 0 16 16" xmlns="http://www.w3.org/2000/svg">
 <g transform="translate(-4)" stroke-dasharray="1.202, 2.404" stroke-linecap="round" stroke-linejoin="round" stroke-width="1.202">
  <rect transform="rotate(15)" x="9.9277" y="-1.5442" width="1" height="4" ry=".5"/>
  <rect transform="rotate(-75)" x=".54423" y="9.9277" width="1" height="4" ry=".5"/>
  <path d="m13.89 0.051877c-0.80088-0.21508-1.6184 0.25798-1.833 1.0607l-1.6785 6.2785-1.2912 4.8296s-0.12912 0.48296-0.073265 1.0102c0.088251 0.83165 0.22357 2.3683 0.23194 2.4032 0.041855 0.17429 0.17563 0.31747 0.35583 0.36591h0.16776c0.11667-0.01099 0.23418-0.04815 0.31666-0.13206 0.0269-0.02736 0.97963-1.3096 1.468-1.9815 0.29519-0.40629 0.42431-0.88925 0.42431-0.88925l2.9697-11.108c0.2146-0.80268-0.25739-1.622-1.0583-1.8371z" stroke-width="1.2006"/>
 </g>
</svg>
