<svg id="svg2" class="font-ref-svg-icon" width="16" height="16" version="1.1" viewBox="0 0 16 16" xmlns="http://www.w3.org/2000/svg">
<g id="g3" transform="matrix(.70899708 0 0 .70899708 -3.2097891 1.0125518)" fill="currentColor">
<g id="g1" stroke-linecap="round" stroke-linejoin="round">
<path id="text1" d="m15.810769 1.3927394c-0.469893 0.7631715-0.796832 1.3720642-1.261685 2.1129098-0.129387 0.4326775-0.148758 2.1184194-0.148758 2.1184194h-1.410443l-1.410443 1.8897733 1.410443-0.4793303s0.76103-0.0152 1.410443 0l0.01389 5.1586924c-0.01389 1.188301-1.424333 1.893523-1.424333-0.222142l-1.413046 2.609989c0.470138 0.210897 1.413081 0.210897 1.413081 0.210897 3.563926 0 3.526073-2.115664 3.526073-2.820886l3.5e-5 -4.9365044h1.410443l1.410443-1.410443h-2.820884v-1.8898193c0-0.703478-1e-3 -0.8745341 0.2314-0.9421319 0.298148 0.1130188 0.538596 0.4189392 0.473821 1.024775h0.705222c2.820889-1.820717 0.903921-2.424199-1.410443-2.424199z" style="white-space:pre"/>
</g>
</g>
<g id="g2" fill="currentColor">
<path id="path3" d="m8 0c-3.8660365 0-7 3.1339635-7 7 0 3.866037 3.1339635 7 7 7 3.866037 0 7-3.133963 7-7 0-3.8660365-3.133963-7-7-7zm0 1c3.313708 0 6 2.6862915 6 6 0 3.313708-2.686292 6-6 6-3.3137085 0-6-2.686292-6-6 0-3.3137085 2.6862915-6 6-6z"/>
</g>
</svg>
