<svg id="svg2" class="font-svg-icon" width="16" height="16" fill="currentColor" version="1.1" viewBox="0 0 16 16" xmlns="http://www.w3.org/2000/svg">
<g id="g2" transform="translate(2.536041,1.963959)">
<path id="path1" d="m4.715 6.542-1.372 1.372a3.0002541 3.0002541 0 1 0 4.243 4.243l1.828-1.829a3 3 0 0 0-0.828-4.828l-0.586 0.586a1 1 0 0 0-0.154 0.199 2 2 0 0 1 0.861 3.337l-1.827 1.828a2.0011122 2.0011122 0 1 1-2.83-2.83l0.793-0.792a4 4 0 0 1-0.128-1.287z"/>
<path id="path2" d="m6.586 4.672a3 3 0 0 0 0.828 4.828l0.775-0.776a2 2 0 0 1-0.896-3.346l1.827-1.828a2.0011122 2.0011122 0 1 1 2.83 2.83l-0.793 0.792c0.112 0.42 0.155 0.855 0.128 1.287l1.372-1.372a3.0002541 3.0002541 0 1 0-4.243-4.243z"/>
</g>
<g id="g3" transform="translate(-13.801129 -.24971253)" fill="currentColor">
<g id="g1" stroke-linecap="round" stroke-linejoin="round">
<path id="text1" d="m16.183049 3.1891746q-0.57816 0.31919-0.50688 2.5459l-0.62568 0.060797-0.99 1.5123 0.15048 0.12159q0.62568-0.34958 1.5998-0.32678l0.01584 5.5401014q0.05544 1.3907-0.42768 1.6339-0.48312 0.24319-1.5048-0.63837l-1.093 1.6111q2.4869 0.11399 3.4927-1.2083 1.0138-1.3147 1.0771-2.8347l-0.10296-4.1722014h0.68904l1.2276-1.4363-1.9562-0.015199q-0.08712-2.3787 0.13464-2.7739 1.2118-0.098796 1.085 1.0867l1.1326-0.91196q0.36432-0.41798 0.12672-0.91956-0.2376-0.50918-1.4335-0.8055599z" stroke-dasharray="1.19364, 2.38728" stroke-width="1.1936" style="white-space:pre" aria-label="f"/>
</g>
</g>
</svg>
