<svg id="svg1" class="grid-svg-icon" width="16" height="16" fill="currentColor" version="1.1" viewBox="0 0 16 16" xmlns="http://www.w3.org/2000/svg">
<g fill="#000" stroke-dasharray="1.202, 2.404" stroke-linecap="round" stroke-linejoin="round" stroke-width="1.202">
<path id="rect8" d="m2 0c-1.108 0-2 0.892-2 2v12c0 1.108 0.892 2 2 2h3c1.108 0 2-0.892 2-2v-12c0-1.108-0.892-2-2-2h-3zm0 1h3c0.554 0 1 0.446 1 1v12c0 0.554-0.446 1-1 1h-3c-0.554 0-1-0.446-1-1v-12c0-0.554 0.446-1 1-1z"/>
<path id="rect4" d="m11 0c-1.108 0-2 0.892-2 2v3c0 1.108 0.892 2 2 2h3c1.108 0 2-0.892 2-2v-3c0-1.108-0.892-2-2-2h-3zm0 1h3c0.554 0 1 0.446 1 1v3c0 0.554-0.446 1-1 1h-3c-0.554 0-1-0.446-1-1v-3c0-0.554 0.446-1 1-1z"/>
<path id="rect6" d="m11 9c-1.108 0-2 0.892-2 2v3c0 1.108 0.892 2 2 2h3c1.108 0 2-0.892 2-2v-3c0-1.108-0.892-2-2-2h-3zm0 1h3c0.554 0 1 0.446 1 1v3c0 0.554-0.446 1-1 1h-3c-0.554 0-1-0.446-1-1v-3c0-0.554 0.446-1 1-1z"/>
</g>
</svg>
