<svg class="quest-ref-svg-icon" id="svg1" width="16" height="16" fill="currentColor" version="1.1" viewBox="0 0 16 16" xmlns="http://www.w3.org/2000/svg">
<path id="rect3" d="M 8.4863281,3 C 7.4660491,3 6.6416297,3.2810671 6.0117188,3.84375 5.3862397,4.4064329 5.048793,5.0907222 5,5.8964844 L 6.7167969,6.1132812 C 6.8365689,5.5505986 7.055608,5.1320108 7.375,4.8574219 7.694392,4.5828329 8.0917542,4.4453125 8.5664062,4.4453125 c 0.4923951,0 0.8835351,0.1328516 1.171875,0.3984375 0.2927758,0.2610847 0.4394528,0.5761924 0.4394528,0.9453125 0,0.2655866 -0.08392,0.5079444 -0.2480465,0.7285156 C 9.8232235,6.6571239 9.498752,6.9521973 8.953125,7.4023438 8.407498,7.85249 8.0432021,8.2570705 7.8613281,8.6171875 7.6794511,8.9773045 7.5878906,9.437912 7.5878906,9.996094 c 0,0.05402 0.00341,0.203591 0.00781,0.451172 h 1.695315 C 9.2821156,9.925096 9.3248056,9.563894 9.4179688,9.361328 9.5155588,9.158762 9.761447,8.8897492 10.15625,8.5566406 10.919241,7.9129316 11.415813,7.4048713 11.646484,7.03125 11.881602,6.6576287 12,6.2604335 12,5.8417969 12,5.0855513 11.683175,4.4246059 11.048828,3.8574219 10.414481,3.285736 9.5598391,3 8.4863281,3 Z m -0.890625,8.103516 V 13 h 1.8691407 v -1.896484 z"/>
<path id="path1" d="m-10.388672 3.65625c-1.925446 0-3.486328 1.3431458-3.486328 3h1.162109c0-1.1045695 1.040589-2 2.324219-2 1.2836307 0 2.324219 0.8954305 2.324219 2 0 0.6082924-0.315586 1.1531579-0.8135548 1.5199748-0.9969922 0.6557021-1.9969922 1.0047263-1.9969922 2.4800252v1h1v-1s0-1 0.9909167-1.2937211c1.1839323-0.4872552 1.9815283-1.5260949 1.9817393-2.7062789 0-1.6568542-1.560882-2.9999999-3.486328-3z" fill="#9a00df" fill-opacity=".578212" stroke-linecap="round" stroke-linejoin="round" stroke-width=".92401"/>
<rect id="rect4" x="-10.875" y="12.65625" width="1" height="1" fill="#9a00df" fill-opacity=".578212" stroke-linecap="round" stroke-linejoin="round"/>
</svg>
