<svg id="svg2" class="restore-svg-icon" width="16" height="16" fill="currentColor" version="1.1" viewBox="0 0 16 16" xmlns="http://www.w3.org/2000/svg">
<g id="g1" fill="#000" stroke-linecap="round" stroke-linejoin="round">
<path id="path3" d="M 8 1 A 7 7 0 0 0 2.6777344 3.453125 L 4.078125 4.3847656 A 5.3333335 5.3333335 0 0 1 8 2.6660156 A 5.3333335 5.3333335 0 0 1 12.945312 6 L 14.708984 6 A 7 7 0 0 0 8 1 z M 1.0722656 9 A 7 7 0 0 0 8 15 A 7 7 0 0 0 13.945312 11.693359 L 12.5 10.863281 A 5.3333335 5.3333335 0 0 1 8 13.333984 A 5.3333335 5.3333335 0 0 1 2.7597656 9 L 1.0722656 9 z "/>
<path id="path7" d="m0 9h4l-2-3z"/>
<path id="path8" d="m12 6h4l-2 3z"/>
</g>
</svg>
