<svg id="svg2" class="restore-45deg-svg-icon" width="16" height="16" fill="currentColor" version="1.1" viewBox="0 0 16 16" xmlns="http://www.w3.org/2000/svg">
<g id="g1" fill="#000" stroke-linecap="round" stroke-linejoin="round">
<path id="path1" d="M 8 1 A 7 7 0 0 0 7.1464844 1.0527344 L 7.625 2.84375 A 5.1699185 5.1699185 0 0 1 8 2.8300781 A 5.1699185 5.1699185 0 0 1 13.169922 8 A 5.1699185 5.1699185 0 0 1 12.785156 9.9570312 L 14.158203 11.330078 A 7 7 0 0 0 15 8 A 7 7 0 0 0 8 1 z M 2.3945312 3.8085938 A 7 7 0 0 0 1 8 A 7 7 0 0 0 8 15 A 7 7 0 0 0 9.640625 14.804688 L 9.1152344 13.048828 A 5.1699185 5.1699185 0 0 1 8 13.169922 A 5.1699185 5.1699185 0 0 1 2.8300781 8 A 5.1699185 5.1699185 0 0 1 3.7070312 5.1210938 L 2.3945312 3.8085938 z "/>
<path id="path7" d="m1.636039 3.0502523 2.828427 2.8284271 0.707107-3.5355339z"/>
<path id="path8" d="m12.242641 9.4142139 2.828427 2.8284261-3.535534 0.707107z"/>
</g>
</svg>
