<svg id="svg1" class="src-svg-icon" width="16" height="16" fill="currentColor" version="1.1" viewBox="0 0 16 16" xmlns="http://www.w3.org/2000/svg">
<g id="g1" fill="#000" stroke-linecap="round" stroke-linejoin="round">
<path id="path41" d="M 3,2 C 1.7112447,2.3093354 1,3 1,4 1,4.5522847 1.4477152,5 2,5 2.5522847,5 3,4.5522847 3,4 3,3.6325151 2.8017766,3.3113276 2.5064197,3.1375278 2.3578915,3.0501278 3,2 3,2 Z M 6,2 C 4.7112447,2.3093354 4,3 4,4 4,4.5522847 4.4477153,5 5,5 5.5522847,5 6,4.5522847 6,4 6,3.6336477 5.8029966,3.3133079 5.5091479,3.139139 5.3600128,3.0507441 6,2 6,2 Z"/>
<path id="rect11" d="m13.537456 10.199631a2.5 2.5 0 0 1-1.733753 0.999388l1.328588 2.301181c0.277 0.479776 0.888493 0.641604 1.368283 0.36456 0.479779-0.277001 0.641101-0.886608 0.364054-1.366397z"/>
<path id="path36" d="m11.5 5a3.5 3.5 0 0 0-3.5 3.5 3.5 3.5 0 0 0 3.5 3.5 3.5 3.5 0 0 0 3.5-3.5 3.5 3.5 0 0 0-3.5-3.5zm0 1a2.5 2.5 0 0 1 2.5 2.5 2.5 2.5 0 0 1-2.5 2.5 2.5 2.5 0 0 1-2.5-2.5 2.5 2.5 0 0 1 2.5-2.5z" stroke-width="1.16667"/>
<g fill="#000" stroke-linecap="round" stroke-linejoin="round">
<rect id="rect2" x="7" y="3" width="8" height="1" ry=".46685436"/>
<rect id="rect4" x="1" y="6" width="6" height="1" ry=".453125"/>
<rect id="rect5" x="1" y="9" width="6" height="1" ry=".47790292"/>
<rect id="rect8" x="1" y="12" width="8" height="1" ry=".4375"/>
</g>
</g>
</svg>
