<svg id="svg2" class="tag-svg-icon" width="16" height="16" fill="currentColor" version="1.1" viewBox="0 0 16 16" xmlns="http://www.w3.org/2000/svg">
<g id="g4" transform="rotate(-45,4.2071068,4.3284271)">
<g id="g5">
<g id="g6" transform="rotate(45,4.0250728,4.767896)">
<path id="path2" d="m0.6359321-1.5117104e-8 5.5777099-1e-15c0.2651948 5.66e-5 0.5195073 0.1054506 0.707 0.293l8.008076 8.0000001c0.390382 0.3904999 0.390382 1.0235002 0 1.4140005l-5.5857857 5.5857854c-0.3905001 0.390382-1.0235004 0.390382-1.4140003 0l-8-8.0080725c-0.1875494-0.1874927-0.2929434-0.4418052-0.293-0.707v-5.5777135c0-0.2709933 0.13279343-0.5183769 0.30117962-0.6988204 0.17478524-0.1873007 0.41752894-0.30117962 0.69882044-0.30117962m-9e-8 6.5777135 8 8.0080725 5.585786-5.5857859-8.008076-8.0000001-5.5694235 0.00829002z"/>
<path id="path5" d="m5.0523736 2.587904c-0.7810485-0.7810487-2.0473786-0.7810487-2.8284271 0-0.7810487 0.7810485-0.7810487 2.0473786 0 2.8284271 0.7810485 0.7810487 2.0473786 0.7810487 2.8284271 0 0.7810487-0.7810485 0.7810487-2.0473786 0-2.8284271zm-0.7071068 0.7071068c0.3905244 0.3905242 0.3905244 1.0236893 0 1.4142135-0.3905242 0.3905244-1.0236893 0.3905244-1.4142135 0-0.3905244-0.3905242-0.3905244-1.0236893 0-1.4142135 0.3905242-0.3905244 1.0236893-0.3905244 1.4142135 0z" fill="#000" stroke-dasharray="2.404, 4.808" stroke-linecap="round" stroke-linejoin="round" stroke-width="2.404"/>
</g>
</g>
</g>
</svg>
