<svg class="title-svg-icon" width="16" height="16" fill="currentColor" version="1.1" viewBox="0 0 16 16" xml:space="preserve" xmlns="http://www.w3.org/2000/svg">
    <path d="m0 1v2h1c0-0.99999 7e-6 -1 1-1h1v6c0 0.99999-7e-6 1-1 1v1h3v-1c-0.99999 0-1-7e-6 -1-1v-6h1c0.99999 0 1 7e-6 1 1h1v-2h-4zm12 3v6h3v-6zm-4 0v6h3v-6zm-7.4902 9c-0.28278 0-0.50977 0.22894-0.50977 0.51172s0.22698 0.50977 0.50977 0.50977h14.98c0.28278 0 0.50977-0.22698 0.50977-0.50977s-0.22698-0.51172-0.50977-0.51172zm0.99023 1.9805c-0.277 0-0.5 0.223-0.5 0.5s0.223 0.5 0.5 0.5h13c0.277 0 0.5-0.223 0.5-0.5s-0.223-0.5-0.5-0.5z"/>
</svg>
