<?xml version="1.0" encoding="UTF-8" standalone="no"?>
<!-- Created with Inkscape (http://www.inkscape.org/) -->

<svg
   width="100"
   height="30"
   viewBox="0 0 100 30.000001"
   version="1.1"
   id="svg1"
   xml:space="preserve"
   inkscape:version="1.4.2 (ebf0e940d0, 2025-05-08)"
   sodipodi:docname="brand.svg"
   inkscape:export-filename="brand.png"
   inkscape:export-xdpi="96"
   inkscape:export-ydpi="96"
   xmlns:inkscape="http://www.inkscape.org/namespaces/inkscape"
   xmlns:sodipodi="http://sodipodi.sourceforge.net/DTD/sodipodi-0.dtd"
   xmlns:xlink="http://www.w3.org/1999/xlink"
   xmlns="http://www.w3.org/2000/svg"
   xmlns:svg="http://www.w3.org/2000/svg"><sodipodi:namedview
     id="namedview1"
     pagecolor="#ffffff"
     bordercolor="#000000"
     borderopacity="0.25"
     inkscape:showpageshadow="2"
     inkscape:pageopacity="0.0"
     inkscape:pagecheckerboard="0"
     inkscape:deskcolor="#d1d1d1"
     inkscape:document-units="px"
     inkscape:zoom="4"
     inkscape:cx="23.375"
     inkscape:cy="10.625"
     inkscape:window-width="1366"
     inkscape:window-height="736"
     inkscape:window-x="0"
     inkscape:window-y="0"
     inkscape:window-maximized="1"
     inkscape:current-layer="g10"
     showgrid="true"
     showguides="true"><inkscape:grid
       id="grid17"
       units="px"
       originx="0"
       originy="0"
       spacingx="1"
       spacingy="1.0000001"
       empcolor="#0099e5"
       empopacity="0.30196078"
       color="#0099e5"
       opacity="0.14901961"
       empspacing="5"
       dotted="false"
       gridanglex="30"
       gridanglez="30"
       visible="true" /><sodipodi:guide
       position="85,7.9999984"
       orientation="0,-1"
       id="guide10"
       inkscape:locked="false" /></sodipodi:namedview><defs
     id="defs1"><linearGradient
       id="linearGradient9"
       inkscape:collect="always"><stop
         style="stop-color:#3b4d49;stop-opacity:1;"
         offset="0"
         id="stop9" /><stop
         style="stop-color:#5e5b80;stop-opacity:1;"
         offset="1"
         id="stop10" /></linearGradient><rect
       x="30"
       y="2.0000002"
       width="68"
       height="26.000002"
       id="rect4" /><rect
       x="30"
       y="5.0000004"
       width="74.999998"
       height="40.000003"
       id="rect2" /><linearGradient
       inkscape:collect="always"
       xlink:href="#linearGradient9"
       id="linearGradient10"
       x1="354.2101"
       y1="-308.84304"
       x2="2817.3348"
       y2="-308.84304"
       gradientUnits="userSpaceOnUse"
       gradientTransform="translate(-25.897727,15.899866)" /><linearGradient
       id="linearGradient7"
       inkscape:collect="always"><stop
         style="stop-color:#125787;stop-opacity:1;"
         offset="0"
         id="stop7" /><stop
         style="stop-color:#126e87;stop-opacity:1;"
         offset="1"
         id="stop8" /></linearGradient><linearGradient
       id="linearGradient5"
       inkscape:collect="always"><stop
         style="stop-color:#2f533d;stop-opacity:1;"
         offset="0"
         id="stop5" /><stop
         style="stop-color:#482c9e;stop-opacity:1;"
         offset="1"
         id="stop6" /></linearGradient><linearGradient
       id="linearGradient3"
       inkscape:collect="always"><stop
         style="stop-color:#952187;stop-opacity:1;"
         offset="0"
         id="stop3" /><stop
         style="stop-color:#4a2195;stop-opacity:1;"
         offset="1"
         id="stop4" /></linearGradient><linearGradient
       id="linearGradient1"
       inkscape:collect="always"><stop
         style="stop-color:#2c2f6c;stop-opacity:1;"
         offset="0"
         id="stop1" /><stop
         style="stop-color:#7e3854;stop-opacity:1;"
         offset="1"
         id="stop2" /></linearGradient><linearGradient
       inkscape:collect="always"
       xlink:href="#linearGradient1"
       id="linearGradient2"
       x1="0"
       y1="15"
       x2="30"
       y2="15"
       gradientUnits="userSpaceOnUse" /><linearGradient
       inkscape:collect="always"
       xlink:href="#linearGradient3"
       id="linearGradient4"
       x1="3.7871094"
       y1="14.181641"
       x2="29.241872"
       y2="14.181641"
       gradientUnits="userSpaceOnUse" /><linearGradient
       inkscape:collect="always"
       xlink:href="#linearGradient5"
       id="linearGradient6"
       x1="0"
       y1="15"
       x2="30"
       y2="15"
       gradientUnits="userSpaceOnUse" /><linearGradient
       inkscape:collect="always"
       xlink:href="#linearGradient7"
       id="linearGradient8"
       x1="0.75812727"
       y1="15.818359"
       x2="26.212891"
       y2="15.818359"
       gradientUnits="userSpaceOnUse" /></defs><g
     inkscape:label="Camada 1"
     inkscape:groupmode="layer"
     id="layer1"><g
       id="g51"
       transform="matrix(0.02493714,0,0,0.02493714,19.312015,-1.3018245)"><g
         id="g10"
         transform="translate(260.68801,955.98073)"><path
           style="font-size:18.6667px;font-family:Verdana;-inkscape-font-specification:Verdana;word-spacing:0.01px;white-space:pre;fill:url(#linearGradient10);stroke-width:80.2017;stroke-linecap:round;stroke-linejoin:round"
           d="M 729.32067,-21.558162 H 609.01818 L 408.51403,-502.76816 V -21.558162 H 328.31237 V -582.96982 h 120.30249 l 200.50415,481.20999 v -481.20999 h 80.20166 z M 1230.6338,-209.53076 H 929.82482 c 0,25.09793 3.77686,47.02813 11.3306,65.7906 7.55373,18.5188 17.90963,33.7481 31.0677,45.687896 12.6708,11.696065 27.65644,20.46813 44.95688,26.316197 17.5442,5.848067 36.794,8.7721 57.7495,8.7721 27.7782,0 55.6783,-5.482567 83.7002,-16.4477 28.2656,-11.208731 48.3682,-22.173793 60.308,-32.895193 h 3.6551 v 74.928093 c -23.1484,9.746733 -46.7843,17.909633 -70.9075,24.4887 -24.1232,6.5789999 -49.4647,9.8685 -76.0247,9.8685 -67.7398,0 -120.61595,-18.275133 -158.62828,-54.8254 -38.01227,-36.793929 -57.0184,-88.939023 -57.0184,-156.435293 0,-66.7652 18.1533,-119.76313 54.4599,-158.9938 36.55033,-39.23067 84.55307,-58.846 144.00818,-58.846 55.0692,0 97.4675,16.08213 127.1951,48.2464 29.9712,32.16427 44.957,77.85213 44.9568,137.0636 z m -66.8871,-52.6324 c -0.2432,-36.06293 -9.3808,-63.963 -27.4127,-83.7002 -17.7878,-19.73713 -44.9568,-29.6057 -81.5072,-29.6057 -36.794,0 -66.15605,10.84323 -88.08618,32.5297 -21.68654,21.68653 -33.9918,48.61193 -36.9158,80.7762 z m 524.2369,40.67584 c 0,34.1136 -4.8734,64.81583 -14.6201,92.1067 -9.5031,27.29093 -22.4176,50.195795 -38.7433,68.714593 -17.3005,19.2498 -36.3067,33.7481 -57.0186,43.4949 -20.7118,9.5030667 -43.4948,14.2546001 -68.349,14.2546001 -23.1485,0 -43.373,-2.8022 -60.6735,-8.4066001 -17.3005,-5.360733 -20.7312,-12.6708 -37.5443,-21.9302 l -4.3861,11.695165 h -75.8156 V -582.96982 h 80.2017 v 203.2197 c 19.2498,-15.83847 26.0919,-28.75293 47.7784,-38.7434 21.6865,-10.23407 46.0534,-15.3511 73.1006,-15.3511 48.2464,0 86.2587,18.51883 114.0369,55.5565 28.0219,37.0376 42.0329,89.30453 42.0329,156.8008 z m -70.9076,1.8274 c 0,-48.73373 -8.0411,-85.64953 -24.1232,-110.7474 -16.0821,-25.3416 -42.0329,-38.0124 -77.8522,-38.0124 -19.9808,0 -40.2053,4.38603 -60.6735,13.1581 -20.4681,8.5284 -25.8482,19.61533 -43.3923,33.2608 v 233.921896 c 19.4934,8.772131 22.5587,14.863864 36.4478,18.275197 14.1328,3.411333 30.0931,5.117 47.8809,5.117 38.0123,0 67.7398,-12.427098 89.1827,-37.281293 21.6865,-25.09787 32.5298,-64.3285 32.5298,-117.6919 z m 515.7736,198.101758 h -80.2017 v -38.011465 c -23.1485,18.275133 -41.8758,32.286067 -63.0749,42.0328 -21.1992,9.7467334 -44.5914,14.6201001 -70.1766,14.6201001 -42.8857,0 -87.7553,-13.0362671 -111.6349,-39.1088001 -23.8795,-26.3162 -35.8193,-64.815833 -35.8193,-115.498893 v -264.9896 h 80.2017 v 232.4599 c 0,20.71187 0.9747,38.4997 2.9241,53.3635 1.9495,14.62013 6.0918,27.16907 12.4271,37.646796 6.5791,10.721398 15.1075,18.518797 25.5852,23.392197 10.4777,4.873333 25.707,7.31 45.6879,7.31 17.7878,0 37.1594,-4.6297 58.1149,-13.8891 21.1992,-9.259398 37.4898,-21.077333 55.7649,-35.453793 v -304.8295 h 80.2017 z m 200.5042,0 h -80.2016 V -582.96982 h 80.2016 z m 481.2101,-7e-6 h -80.2018 v -36.183958 c -6.0917,4.142333 -14.3765,9.990367 -24.8542,17.5441 -10.2341,7.310067 -20.2245,13.158133 -29.9713,17.5442 -11.4524,5.6044 -35.8845,10.2341 -50.7483,13.8891001 -14.8638,3.8986667 -32.2861,5.848 -52.2669,5.848 -36.794,0 -67.9836,-12.1834331 -93.5688,-36.5503001 -25.5852,-24.366867 -38.3778,-55.434598 -38.3778,-93.203193 0,-30.94593 6.5791,-55.922 19.7372,-74.9282 13.4017,-19.2498 32.4079,-34.35723 57.0184,-45.3223 24.8542,-10.96507 54.7036,-18.39697 89.5483,-22.2957 34.8446,-3.89867 83.5217,-6.8227 123.4834,-8.7721 v -10.5995 c 0,-15.59487 -2.8022,-28.50933 -8.4066,-38.7434 -5.3607,-10.23407 -13.1581,-18.27513 -23.3922,-24.1232 -9.7467,-5.60433 -21.4428,-9.3812 -35.0882,-11.3306 -13.6455,-1.9494 -39.1741,-2.9241 -54.0379,-2.9241 -18.0315,0 -38.1341,2.43667 -60.308,7.31 -22.1739,4.62973 -45.0787,11.45247 -68.7146,20.4682 h -3.6551 v -69.8108 c 13.4017,-3.65507 32.7734,-7.6756 58.1149,-12.0616 25.3415,-4.38607 50.3176,-6.5791 74.9281,-6.5791 28.7529,0 73.2235,2.28439 94.4227,7.15779 21.4428,4.62967 43.5939,12.82304 59.1887,24.27551 15.3511,11.20873 27.0472,25.707 35.0883,43.4948 8.041,17.78787 12.0616,39.8399 12.0616,66.1561 z m -80.2018,-93.202451 v -113.6714 c -20.9555,1.21827 -45.6878,3.04577 -74.1971,5.4825 -28.2656,2.4368 -61.9571,5.97 -78.5266,10.5996 -19.7371,5.6044 -35.6974,14.37647 -47.8808,26.3162 -12.1835,11.69613 -18.2752,27.90013 -18.2752,48.612 0,23.39213 7.0664,41.058099 21.1991,52.997896 14.1328,11.696065 35.6975,17.544097 64.6941,17.544097 24.1232,0 57.4492,-4.6297 77.43,-13.8891 19.9809,-9.503065 38.4997,-20.833663 55.5565,-33.991793 z"
           id="text2"
           aria-label="Nebula"
           sodipodi:nodetypes="ccccccccccccccccsccccsscscscscccscccscccsccccccccscsscsccccscscccsscsccsccssccccccccccccccccsssccscsccssccccssccssccccccscscc" /><g
           inkscape:label="Camada 1"
           id="layer1-3"
           transform="matrix(40.10083,0,0,40.10083,-1035.1158,-903.77649)"><path
             id="path931"
             style="fill:url(#linearGradient6);fill-opacity:1;stroke-width:1.202;stroke-linecap:round;stroke-linejoin:round;stroke-dasharray:1.202, 2.404"
             d="m 0,0 c 0,10.000001 0,19.999999 5,30 l 5,-10 c 5,10.000001 15,10.000003 20,10 L 20,20 C 13,19 12,14 10,10 Z" /><path
             id="path939"
             style="fill:url(#linearGradient8);fill-opacity:0.5;stroke-width:1.202;stroke-linecap:round;stroke-linejoin:round;stroke-dasharray:1.202, 2.404"
             d="m 1.734375,1.734375 c -0.6442128,4.8276941 -1.14297461,9.67538 -0.92382812,14.625 0.54340202,3.654529 1.45298572,7.310315 2.96875002,10.964844 l 5.5703125,-8.072266 c 0.136035,0.406009 0.2815199,0.798244 0.4355468,1.177735 L 10,20 c 3.93291,7.865821 10.959539,9.544079 16.212891,9.902344 L 18.548828,19.716797 c -0.217274,-0.05514 -0.415229,-0.12352 -0.61914,-0.1875 -0.107849,-0.03383 -0.223883,-0.06145 -0.328126,-0.09766 -0.252326,-0.08767 -0.48664,-0.188115 -0.71875,-0.289063 -0.08266,-0.03594 -0.173702,-0.06597 -0.253906,-0.103516 -0.0025,-0.0012 -0.0053,-0.0027 -0.0078,-0.0039 -0.296016,-0.138919 -0.575408,-0.289757 -0.839844,-0.449218 -0.05675,-0.03422 -0.10673,-0.07231 -0.162109,-0.107422 -0.209916,-0.133092 -0.414268,-0.268937 -0.605469,-0.414063 -0.06874,-0.05217 -0.130803,-0.108488 -0.197266,-0.162109 -0.164495,-0.132737 -0.327202,-0.267108 -0.478515,-0.408203 -0.07128,-0.06645 -0.136545,-0.1369 -0.205079,-0.205079 -0.139598,-0.138903 -0.277296,-0.278295 -0.40625,-0.423828 -0.06433,-0.07257 -0.125637,-0.146612 -0.1875,-0.220703 -0.114962,-0.137735 -0.22693,-0.277375 -0.333984,-0.419922 -0.04865,-0.06477 -0.09349,-0.13159 -0.140625,-0.197265 -0.224786,-0.313243 -0.422025,-0.642189 -0.617187,-0.972656 -0.11469,-0.194172 -0.2371,-0.383476 -0.34375,-0.582032 -0.173423,-0.322901 -0.332431,-0.65196 -0.490235,-0.982422 -0.09774,-0.20464 -0.201029,-0.403383 -0.294934,-0.609377 C 10.875047,11.908484 10.463559,10.927118 10,10 Z" /><path
             id="path937"
             style="fill:url(#linearGradient2);fill-opacity:1;stroke-width:1.202;stroke-linecap:round;stroke-linejoin:round;stroke-dasharray:1.202, 2.404"
             d="m 0,0 10,10 c 5.25,0.75 7.125,3.75 8.578125,6.890625 C 19.062478,17.937462 19.500019,19.000038 20,20 L 30,30 C 30,19.999999 30,10.000001 25,0 L 20,10 C 15,-1e-6 5,-3e-6 0,0 Z" /><path
             id="path938"
             style="fill:url(#linearGradient4);fill-opacity:0.5;stroke-width:1.202;stroke-linecap:round;stroke-linejoin:round;stroke-dasharray:1.202, 2.404"
             d="M 3.7871094,0.09765625 11.451172,10.283203 c 0.03136,0.008 0.06312,0.01693 0.09375,0.02539 0.181593,0.05014 0.35091,0.107363 0.52539,0.162109 0.107849,0.03383 0.223882,0.06145 0.328126,0.09766 0.02055,0.0071 0.03827,0.01613 0.05859,0.02344 0.203363,0.072 0.391988,0.153633 0.582031,0.234375 0.02528,0.01094 0.05292,0.02029 0.07813,0.03125 0.08266,0.03594 0.173702,0.06597 0.253906,0.103516 0.0025,0.0012 0.0053,0.0027 0.0078,0.0039 0.01032,0.0048 0.01902,0.01075 0.0293,0.01563 0.255796,0.121135 0.496555,0.252032 0.728516,0.388672 0.02626,0.01549 0.05607,0.02926 0.08203,0.04492 0.0012,7.34e-4 0.0027,0.0012 0.0039,0.002 0.05518,0.03331 0.104327,0.07132 0.158203,0.105468 0.209845,0.132996 0.414326,0.269044 0.605469,0.414063 0.06874,0.05217 0.130803,0.108488 0.197266,0.162109 0.01551,0.01251 0.02953,0.02647 0.04492,0.03906 0.147702,0.120833 0.296645,0.241492 0.433593,0.36914 0.07128,0.06646 0.136545,0.136899 0.205079,0.205079 0.0052,0.0052 0.01041,0.01041 0.01562,0.01562 0.124403,0.124347 0.247396,0.249255 0.363282,0.378907 0.0089,0.0099 0.01854,0.01936 0.02734,0.0293 0.06433,0.07257 0.125637,0.146612 0.1875,0.220703 0.114962,0.137735 0.22693,0.277375 0.333984,0.419922 0.04865,0.06476 0.09349,0.13159 0.140625,0.197265 0.03289,0.04583 0.05806,0.09612 0.08984,0.142578 0.185743,0.266904 0.356478,0.541403 0.521484,0.820313 0.0019,0.0033 0.0039,0.0065 0.0059,0.0098 0.11469,0.194173 0.2371,0.383476 0.34375,0.582032 0.0048,0.009 0.0089,0.01834 0.01367,0.02734 0.167921,0.313877 0.323288,0.634128 0.476563,0.955078 0.09773,0.204638 0.201017,0.403381 0.294922,0.609375 l 0.002,0.002 C 19.126736,18.093146 19.536563,19.073126 20,20 l 8.265625,8.265625 c 0.644213,-4.827692 1.142974,-9.675382 0.923828,-14.625 C 28.646051,9.986095 27.736468,6.3303115 26.220703,2.6757812 L 20.650391,10.748047 C 20.514356,10.342039 20.368871,9.9498023 20.214844,9.5703125 L 20,10 C 16.067091,2.1341808 9.0404602,0.4559217 3.7871094,0.09765625 Z" /><g
             id="g934" /></g></g></g></g></svg>
