<?xml version="1.0" encoding="UTF-8" standalone="no"?>
<!-- Created with Inkscape (http://www.inkscape.org/) -->

<svg
   width="16"
   height="16"
   viewBox="0 0 16 16.000001"
   version="1.1"
   id="svg1"
   xml:space="preserve"
   inkscape:version="1.4.2 (ebf0e940d0, 2025-05-08)"
   sodipodi:docname="favicon.svg"
   xmlns:inkscape="http://www.inkscape.org/namespaces/inkscape"
   xmlns:sodipodi="http://sodipodi.sourceforge.net/DTD/sodipodi-0.dtd"
   xmlns:xlink="http://www.w3.org/1999/xlink"
   xmlns="http://www.w3.org/2000/svg"
   xmlns:svg="http://www.w3.org/2000/svg"><sodipodi:namedview
     id="namedview1"
     pagecolor="#ffffff"
     bordercolor="#000000"
     borderopacity="0.25"
     inkscape:showpageshadow="2"
     inkscape:pageopacity="0.0"
     inkscape:pagecheckerboard="0"
     inkscape:deskcolor="#d1d1d1"
     inkscape:document-units="px"
     inkscape:zoom="32"
     inkscape:cx="13.078125"
     inkscape:cy="14.234375"
     inkscape:window-width="1366"
     inkscape:window-height="736"
     inkscape:window-x="0"
     inkscape:window-y="0"
     inkscape:window-maximized="1"
     inkscape:current-layer="g5"
     showgrid="false"
     showguides="true"><inkscape:grid
       id="grid17"
       units="px"
       originx="0"
       originy="0"
       spacingx="1"
       spacingy="1.0000001"
       empcolor="#0099e5"
       empopacity="0.30196078"
       color="#0099e5"
       opacity="0.14901961"
       empspacing="5"
       dotted="false"
       gridanglex="30"
       gridanglez="30"
       visible="false" /></sodipodi:namedview><defs
     id="defs1"><linearGradient
       id="linearGradient7"
       inkscape:collect="always"><stop
         style="stop-color:#125787;stop-opacity:1;"
         offset="0"
         id="stop7" /><stop
         style="stop-color:#126e87;stop-opacity:1;"
         offset="1"
         id="stop8" /></linearGradient><linearGradient
       id="linearGradient5-3"
       inkscape:collect="always"><stop
         style="stop-color:#2f533d;stop-opacity:1;"
         offset="0"
         id="stop5-5" /><stop
         style="stop-color:#482c9e;stop-opacity:1;"
         offset="1"
         id="stop6-6" /></linearGradient><linearGradient
       id="linearGradient3"
       inkscape:collect="always"><stop
         style="stop-color:#952187;stop-opacity:1;"
         offset="0"
         id="stop3" /><stop
         style="stop-color:#4a2195;stop-opacity:1;"
         offset="1"
         id="stop4" /></linearGradient><linearGradient
       id="linearGradient1-2"
       inkscape:collect="always"><stop
         style="stop-color:#2c2f6c;stop-opacity:1;"
         offset="0"
         id="stop1-9" /><stop
         style="stop-color:#7e3854;stop-opacity:1;"
         offset="1"
         id="stop2-1" /></linearGradient><linearGradient
       inkscape:collect="always"
       xlink:href="#linearGradient1-2"
       id="linearGradient2"
       x1="0"
       y1="15"
       x2="30"
       y2="15"
       gradientUnits="userSpaceOnUse" /><linearGradient
       inkscape:collect="always"
       xlink:href="#linearGradient3"
       id="linearGradient4"
       x1="3.7871094"
       y1="14.181641"
       x2="29.241872"
       y2="14.181641"
       gradientUnits="userSpaceOnUse" /><linearGradient
       inkscape:collect="always"
       xlink:href="#linearGradient5-3"
       id="linearGradient6"
       x1="0"
       y1="15"
       x2="30"
       y2="15"
       gradientUnits="userSpaceOnUse" /><linearGradient
       inkscape:collect="always"
       xlink:href="#linearGradient7"
       id="linearGradient8"
       x1="0.75812727"
       y1="15.818359"
       x2="26.212891"
       y2="15.818359"
       gradientUnits="userSpaceOnUse" /></defs><g
     inkscape:label="Camada 1"
     inkscape:groupmode="layer"
     id="layer1"><g
       id="g51"
       transform="matrix(0.02493714,0,0,0.02493714,19.312015,-1.3018245)"><g
         id="g10"
         transform="translate(260.68801,955.98073)"><g
           id="g5"
           transform="matrix(0.53333333,0,0,0.53333333,233.57075,-1143.5773)"><g
             inkscape:label="Camada 1"
             id="layer1-2"
             transform="matrix(40.10083,0,0,40.10083,-2378.7874,449.62653)"><path
               id="path931"
               style="fill:url(#linearGradient6);fill-opacity:1;stroke-width:1.202;stroke-linecap:round;stroke-linejoin:round;stroke-dasharray:1.202, 2.404"
               d="m 0,0 c 0,10.000001 0,19.999999 5,30 l 5,-10 c 5,10.000001 15,10.000003 20,10 L 20,20 C 13,19 12,14 10,10 Z" /><path
               id="path939"
               style="fill:url(#linearGradient8);fill-opacity:0.5;stroke-width:1.202;stroke-linecap:round;stroke-linejoin:round;stroke-dasharray:1.202, 2.404"
               d="m 1.734375,1.734375 c -0.6442128,4.8276941 -1.14297461,9.67538 -0.92382812,14.625 0.54340202,3.654529 1.45298572,7.310315 2.96875002,10.964844 l 5.5703125,-8.072266 c 0.136035,0.406009 0.2815199,0.798244 0.4355468,1.177735 L 10,20 c 3.93291,7.865821 10.959539,9.544079 16.212891,9.902344 L 18.548828,19.716797 c -0.217274,-0.05514 -0.415229,-0.12352 -0.61914,-0.1875 -0.107849,-0.03383 -0.223883,-0.06145 -0.328126,-0.09766 -0.252326,-0.08767 -0.48664,-0.188115 -0.71875,-0.289063 -0.08266,-0.03594 -0.173702,-0.06597 -0.253906,-0.103516 -0.0025,-0.0012 -0.0053,-0.0027 -0.0078,-0.0039 -0.296016,-0.138919 -0.575408,-0.289757 -0.839844,-0.449218 -0.05675,-0.03422 -0.10673,-0.07231 -0.162109,-0.107422 -0.209916,-0.133092 -0.414268,-0.268937 -0.605469,-0.414063 -0.06874,-0.05217 -0.130803,-0.108488 -0.197266,-0.162109 -0.164495,-0.132737 -0.327202,-0.267108 -0.478515,-0.408203 -0.07128,-0.06645 -0.136545,-0.1369 -0.205079,-0.205079 -0.139598,-0.138903 -0.277296,-0.278295 -0.40625,-0.423828 -0.06433,-0.07257 -0.125637,-0.146612 -0.1875,-0.220703 -0.114962,-0.137735 -0.22693,-0.277375 -0.333984,-0.419922 -0.04865,-0.06477 -0.09349,-0.13159 -0.140625,-0.197265 -0.224786,-0.313243 -0.422025,-0.642189 -0.617187,-0.972656 -0.11469,-0.194172 -0.2371,-0.383476 -0.34375,-0.582032 -0.173423,-0.322901 -0.332431,-0.65196 -0.490235,-0.982422 -0.09774,-0.20464 -0.201029,-0.403383 -0.294934,-0.609377 C 10.875047,11.908484 10.463559,10.927118 10,10 Z" /><path
               id="path937"
               style="fill:url(#linearGradient2);fill-opacity:1;stroke-width:1.202;stroke-linecap:round;stroke-linejoin:round;stroke-dasharray:1.202, 2.404"
               d="m 0,0 10,10 c 5.25,0.75 7.125,3.75 8.578125,6.890625 C 19.062478,17.937462 19.500019,19.000038 20,20 L 30,30 C 30,19.999999 30,10.000001 25,0 L 20,10 C 15,-1e-6 5,-3e-6 0,0 Z" /><path
               id="path938"
               style="fill:url(#linearGradient4);fill-opacity:0.5;stroke-width:1.202;stroke-linecap:round;stroke-linejoin:round;stroke-dasharray:1.202, 2.404"
               d="M 3.7871094,0.09765625 11.451172,10.283203 c 0.03136,0.008 0.06312,0.01693 0.09375,0.02539 0.181593,0.05014 0.35091,0.107363 0.52539,0.162109 0.107849,0.03383 0.223882,0.06145 0.328126,0.09766 0.02055,0.0071 0.03827,0.01613 0.05859,0.02344 0.203363,0.072 0.391988,0.153633 0.582031,0.234375 0.02528,0.01094 0.05292,0.02029 0.07813,0.03125 0.08266,0.03594 0.173702,0.06597 0.253906,0.103516 0.0025,0.0012 0.0053,0.0027 0.0078,0.0039 0.01032,0.0048 0.01902,0.01075 0.0293,0.01563 0.255796,0.121135 0.496555,0.252032 0.728516,0.388672 0.02626,0.01549 0.05607,0.02926 0.08203,0.04492 0.0012,7.34e-4 0.0027,0.0012 0.0039,0.002 0.05518,0.03331 0.104327,0.07132 0.158203,0.105468 0.209845,0.132996 0.414326,0.269044 0.605469,0.414063 0.06874,0.05217 0.130803,0.108488 0.197266,0.162109 0.01551,0.01251 0.02953,0.02647 0.04492,0.03906 0.147702,0.120833 0.296645,0.241492 0.433593,0.36914 0.07128,0.06646 0.136545,0.136899 0.205079,0.205079 0.0052,0.0052 0.01041,0.01041 0.01562,0.01562 0.124403,0.124347 0.247396,0.249255 0.363282,0.378907 0.0089,0.0099 0.01854,0.01936 0.02734,0.0293 0.06433,0.07257 0.125637,0.146612 0.1875,0.220703 0.114962,0.137735 0.22693,0.277375 0.333984,0.419922 0.04865,0.06476 0.09349,0.13159 0.140625,0.197265 0.03289,0.04583 0.05806,0.09612 0.08984,0.142578 0.185743,0.266904 0.356478,0.541403 0.521484,0.820313 0.0019,0.0033 0.0039,0.0065 0.0059,0.0098 0.11469,0.194173 0.2371,0.383476 0.34375,0.582032 0.0048,0.009 0.0089,0.01834 0.01367,0.02734 0.167921,0.313877 0.323288,0.634128 0.476563,0.955078 0.09773,0.204638 0.201017,0.403381 0.294922,0.609375 l 0.002,0.002 C 19.126736,18.093146 19.536563,19.073126 20,20 l 8.265625,8.265625 c 0.644213,-4.827692 1.142974,-9.675382 0.923828,-14.625 C 28.646051,9.986095 27.736468,6.3303115 26.220703,2.6757812 L 20.650391,10.748047 C 20.514356,10.342039 20.368871,9.9498023 20.214844,9.5703125 L 20,10 C 16.067091,2.1341808 9.0404602,0.4559217 3.7871094,0.09765625 Z" /><g
               id="g934" /></g></g></g></g></g></svg>
