<?xml version="1.0" encoding="UTF-8" standalone="no"?>
<!-- Created with Inkscape (http://www.inkscape.org/) -->

<svg
   width="30"
   height="30"
   viewBox="0 0 30 30.000001"
   version="1.1"
   id="svg1"
   xml:space="preserve"
   inkscape:version="1.4.2 (ebf0e940d0, 2025-05-08)"
   sodipodi:docname="logo.svg"
   xmlns:inkscape="http://www.inkscape.org/namespaces/inkscape"
   xmlns:sodipodi="http://sodipodi.sourceforge.net/DTD/sodipodi-0.dtd"
   xmlns:xlink="http://www.w3.org/1999/xlink"
   xmlns="http://www.w3.org/2000/svg"
   xmlns:svg="http://www.w3.org/2000/svg"><sodipodi:namedview
     id="namedview1"
     pagecolor="#ffffff"
     bordercolor="#000000"
     borderopacity="0.25"
     inkscape:showpageshadow="2"
     inkscape:pageopacity="0.0"
     inkscape:pagecheckerboard="0"
     inkscape:deskcolor="#d1d1d1"
     inkscape:document-units="px"
     inkscape:zoom="11.313708"
     inkscape:cx="19.224466"
     inkscape:cy="15.512156"
     inkscape:window-width="1366"
     inkscape:window-height="736"
     inkscape:window-x="0"
     inkscape:window-y="0"
     inkscape:window-maximized="1"
     inkscape:current-layer="layer1"
     showgrid="true"
     showguides="true"><inkscape:grid
       id="grid17"
       units="px"
       originx="0"
       originy="0"
       spacingx="1"
       spacingy="1.0000001"
       empcolor="#0099e5"
       empopacity="0.30196078"
       color="#0099e5"
       opacity="0.14901961"
       empspacing="5"
       dotted="false"
       gridanglex="30"
       gridanglez="30"
       visible="true" /></sodipodi:namedview><defs
     id="defs1"><linearGradient
       id="linearGradient7"
       inkscape:collect="always"><stop
         style="stop-color:#125787;stop-opacity:1;"
         offset="0"
         id="stop7" /><stop
         style="stop-color:#126e87;stop-opacity:1;"
         offset="1"
         id="stop8" /></linearGradient><linearGradient
       id="linearGradient5"
       inkscape:collect="always"><stop
         style="stop-color:#2f533d;stop-opacity:1;"
         offset="0"
         id="stop5" /><stop
         style="stop-color:#482c9e;stop-opacity:1;"
         offset="1"
         id="stop6" /></linearGradient><linearGradient
       id="linearGradient3"
       inkscape:collect="always"><stop
         style="stop-color:#952187;stop-opacity:1;"
         offset="0"
         id="stop3" /><stop
         style="stop-color:#4a2195;stop-opacity:1;"
         offset="1"
         id="stop4" /></linearGradient><linearGradient
       id="linearGradient1"
       inkscape:collect="always"><stop
         style="stop-color:#2c2f6c;stop-opacity:1;"
         offset="0"
         id="stop1" /><stop
         style="stop-color:#7e3854;stop-opacity:1;"
         offset="1"
         id="stop2" /></linearGradient><linearGradient
       inkscape:collect="always"
       xlink:href="#linearGradient1"
       id="linearGradient2"
       x1="0"
       y1="15"
       x2="30"
       y2="15"
       gradientUnits="userSpaceOnUse" /><linearGradient
       inkscape:collect="always"
       xlink:href="#linearGradient3"
       id="linearGradient4"
       x1="3.7871094"
       y1="14.181641"
       x2="29.241872"
       y2="14.181641"
       gradientUnits="userSpaceOnUse" /><linearGradient
       inkscape:collect="always"
       xlink:href="#linearGradient5"
       id="linearGradient6"
       x1="0"
       y1="15"
       x2="30"
       y2="15"
       gradientUnits="userSpaceOnUse" /><linearGradient
       inkscape:collect="always"
       xlink:href="#linearGradient7"
       id="linearGradient8"
       x1="0.75812727"
       y1="15.818359"
       x2="26.212891"
       y2="15.818359"
       gradientUnits="userSpaceOnUse" /></defs><g
     inkscape:label="Camada 1"
     inkscape:groupmode="layer"
     id="layer1"><path
       id="path931"
       style="fill:url(#linearGradient6);fill-opacity:1;stroke-width:1.202;stroke-linecap:round;stroke-linejoin:round;stroke-dasharray:1.202, 2.404"
       d="M 0 0 C 0 10.000001 0 19.999999 5 30 L 10 20 C 15 30.000001 25 30.000003 30 30 L 20 20 C 13 19 12 14 10 10 L 0 0 z " /><path
       id="path939"
       style="fill:url(#linearGradient8);fill-opacity:0.5;stroke-width:1.202;stroke-linecap:round;stroke-linejoin:round;stroke-dasharray:1.202, 2.404"
       d="M 1.734375 1.734375 C 1.0901622 6.5620691 0.59140039 11.409755 0.81054688 16.359375 C 1.3539489 20.013904 2.2635326 23.66969 3.7792969 27.324219 L 9.3496094 19.251953 C 9.4856444 19.657962 9.6311293 20.050197 9.7851562 20.429688 L 10 20 C 13.93291 27.865821 20.959539 29.544079 26.212891 29.902344 L 18.548828 19.716797 C 18.331554 19.661652 18.133599 19.593277 17.929688 19.529297 C 17.821839 19.495469 17.705805 19.467846 17.601562 19.431641 C 17.349236 19.343971 17.114922 19.243526 16.882812 19.142578 C 16.800156 19.106641 16.70911 19.076604 16.628906 19.039062 C 16.626358 19.037869 16.62364 19.036351 16.621094 19.035156 C 16.325078 18.896237 16.045686 18.745399 15.78125 18.585938 C 15.724498 18.551715 15.67452 18.513626 15.619141 18.478516 C 15.409225 18.345424 15.204873 18.209579 15.013672 18.064453 C 14.944929 18.012287 14.882869 17.955965 14.816406 17.902344 C 14.651911 17.769607 14.489204 17.635236 14.337891 17.494141 C 14.266614 17.427686 14.201346 17.357241 14.132812 17.289062 C 13.993214 17.150159 13.855516 17.010767 13.726562 16.865234 C 13.662235 16.792662 13.600925 16.718622 13.539062 16.644531 C 13.4241 16.506796 13.312132 16.367156 13.205078 16.224609 C 13.156425 16.159844 13.111591 16.093019 13.064453 16.027344 C 12.839667 15.714101 12.642428 15.385155 12.447266 15.054688 C 12.332576 14.860516 12.210166 14.671212 12.103516 14.472656 C 11.930093 14.149755 11.771085 13.820696 11.613281 13.490234 C 11.51555 13.285596 11.412264 13.086853 11.318359 12.880859 C 10.875047 11.908484 10.463559 10.927118 10 10 L 1.734375 1.734375 z " /><path
       id="path937"
       style="fill:url(#linearGradient2);fill-opacity:1;stroke-width:1.202;stroke-linecap:round;stroke-linejoin:round;stroke-dasharray:1.202, 2.404"
       d="M 0 0 L 10 10 C 15.25 10.75 17.125 13.75 18.578125 16.890625 C 19.062478 17.937462 19.500019 19.000038 20 20 L 30 30 C 30 19.999999 30 10.000001 25 0 L 20 10 C 15 -1e-06 5 -3e-06 0 0 z " /><path
       id="path938"
       style="fill:url(#linearGradient4);fill-opacity:0.5;stroke-width:1.202;stroke-linecap:round;stroke-linejoin:round;stroke-dasharray:1.202, 2.404"
       d="M 3.7871094 0.09765625 L 11.451172 10.283203 C 11.482531 10.291162 11.514291 10.300136 11.544922 10.308594 C 11.726515 10.358733 11.895832 10.415957 12.070312 10.470703 C 12.178161 10.504531 12.294194 10.532154 12.398438 10.568359 C 12.418992 10.575501 12.436707 10.584492 12.457031 10.591797 C 12.660394 10.663793 12.849019 10.74543 13.039062 10.826172 C 13.064345 10.837109 13.091977 10.846458 13.117188 10.857422 C 13.199844 10.893359 13.29089 10.923395 13.371094 10.960938 C 13.373642 10.96213 13.37636 10.963649 13.378906 10.964844 C 13.389226 10.969687 13.397924 10.975597 13.408203 10.980469 C 13.663999 11.101604 13.904758 11.232501 14.136719 11.369141 C 14.162974 11.384629 14.192785 11.398405 14.21875 11.414062 C 14.219966 11.414796 14.221441 11.415282 14.222656 11.416016 C 14.277831 11.449322 14.326983 11.487338 14.380859 11.521484 C 14.590704 11.65448 14.795185 11.790528 14.986328 11.935547 C 15.055071 11.987713 15.117131 12.044035 15.183594 12.097656 C 15.199104 12.110168 15.213127 12.124129 15.228516 12.136719 C 15.376218 12.257552 15.525161 12.378211 15.662109 12.505859 C 15.733386 12.572314 15.798654 12.642758 15.867188 12.710938 C 15.872421 12.716144 15.877594 12.721346 15.882812 12.726562 C 16.007215 12.850909 16.130208 12.975817 16.246094 13.105469 C 16.254975 13.115347 16.264636 13.124832 16.273438 13.134766 C 16.337765 13.207338 16.399075 13.281378 16.460938 13.355469 C 16.5759 13.493204 16.687868 13.632844 16.794922 13.775391 C 16.843575 13.840156 16.888409 13.906981 16.935547 13.972656 C 16.968432 14.018482 16.993605 14.068781 17.025391 14.115234 C 17.211134 14.382138 17.381869 14.656637 17.546875 14.935547 C 17.548804 14.938813 17.550806 14.942046 17.552734 14.945312 C 17.667424 15.139485 17.789834 15.328788 17.896484 15.527344 C 17.901313 15.536335 17.90535 15.545687 17.910156 15.554688 C 18.078077 15.868565 18.233444 16.188816 18.386719 16.509766 C 18.48445 16.714404 18.587736 16.913147 18.681641 17.119141 L 18.683594 17.121094 C 19.126736 18.093146 19.536563 19.073126 20 20 L 28.265625 28.265625 C 28.909838 23.437933 29.408599 18.590243 29.189453 13.640625 C 28.646051 9.986095 27.736468 6.3303115 26.220703 2.6757812 L 20.650391 10.748047 C 20.514356 10.342039 20.368871 9.9498023 20.214844 9.5703125 L 20 10 C 16.067091 2.1341808 9.0404602 0.4559217 3.7871094 0.09765625 z " /><g
       id="g934" /></g></svg>
